<?xml version="1.0" encoding="utf-8"?>
<!-- Generator: Adobe Illustrator 19.1.0, SVG Export Plug-In . SVG Version: 6.00 Build 0)  -->
<svg version="1.1" id="Layer_1" xmlns="http://www.w3.org/2000/svg" xmlns:xlink="http://www.w3.org/1999/xlink" x="0px" y="0px"
	 viewBox="-191 364 228 66" style="enable-background:new -191 364 228 66;" xml:space="preserve">
<style type="text/css">
	.st0{fill:#231F20;}
</style>
<g>
	<g>
		<path class="st0" d="M-142.9,385.7c0-0.5,0.2-0.9,0.5-1.3c0.3-0.3,0.7-0.5,1.2-0.5c0.5,0,0.9,0.2,1.3,0.5c0.3,0.3,0.5,0.8,0.5,1.3
			c0,0.5-0.2,0.9-0.5,1.2c-0.3,0.3-0.8,0.5-1.3,0.5c-0.5,0-0.9-0.2-1.2-0.5C-142.7,386.6-142.9,386.2-142.9,385.7z M-142.1,412.9
			v-20.8h2v20.8H-142.1z M-135.3,384c0.8-0.1,1.8-0.3,2.8-0.4c1-0.1,2.1-0.2,3.3-0.2c1.7,0,3.2,0.2,4.5,0.6c1.3,0.4,2.3,1,3.1,1.8
			c0.7,0.7,1.2,1.5,1.6,2.5c0.4,1,0.6,2.1,0.6,3.3c0,1.5-0.3,2.8-0.8,3.9c-0.5,1.1-1.3,2.1-2.2,2.8c-0.9,0.8-2,1.3-3.3,1.7
			c-1.3,0.4-2.7,0.6-4.2,0.6c-1.3,0-2.4-0.1-3.4-0.3v12.5h-2V384z M-133.3,398.6c0.5,0.1,1,0.2,1.6,0.3c0.6,0.1,1.3,0.1,2,0.1
			c2.6,0,4.6-0.6,6-1.8c1.4-1.2,2.2-3,2.2-5.3c0-1.1-0.2-2.1-0.6-2.9c-0.4-0.8-0.9-1.5-1.6-2.1c-0.7-0.5-1.5-0.9-2.5-1.2
			c-1-0.3-2-0.4-3.2-0.4c-0.9,0-1.7,0-2.4,0.1c-0.7,0.1-1.2,0.2-1.6,0.2V398.6z M-116.6,382.1h2v13.6h0.1c0.7-1.3,1.6-2.3,2.7-3
			c1.2-0.7,2.5-1.1,4.2-1.1c0.5,0,1.1,0.1,1.9,0.3c0.8,0.2,1.6,0.6,2.3,1.2c0.8,0.6,1.4,1.5,2,2.6c0.6,1.1,0.8,2.6,0.8,4.5v12.7h-2
			v-12.4c0-0.9-0.1-1.8-0.3-2.7c-0.2-0.9-0.5-1.6-0.9-2.3c-0.4-0.7-1-1.2-1.7-1.6c-0.7-0.4-1.6-0.6-2.6-0.6c-1.5,0-2.8,0.5-3.8,1.4
			c-1.1,0.9-1.8,2-2.3,3.3c-0.2,0.6-0.3,1.3-0.3,2v12.8h-2V382.1z M-87.8,391.6c1.4,0,2.7,0.3,3.8,0.8c1.2,0.5,2.1,1.2,3,2.2
			c0.8,0.9,1.5,2.1,1.9,3.4c0.5,1.3,0.7,2.8,0.7,4.4c0,1.9-0.3,3.6-0.9,5c-0.6,1.4-1.3,2.6-2.3,3.4c-0.9,0.9-2,1.6-3.1,2
			c-1.1,0.4-2.3,0.6-3.4,0.6c-1.3,0-2.5-0.2-3.7-0.7c-1.1-0.5-2.1-1.2-3-2.1c-0.8-0.9-1.5-2.1-2-3.4c-0.5-1.3-0.7-2.8-0.7-4.4
			c0-1.8,0.3-3.4,0.8-4.8c0.5-1.4,1.2-2.5,2.1-3.5c0.9-0.9,1.9-1.6,3-2.1C-90.3,391.8-89.1,391.6-87.8,391.6z M-87.8,393.3
			c-1.3,0-2.4,0.3-3.4,0.8c-0.9,0.5-1.7,1.3-2.3,2.1c-0.6,0.9-1.1,1.9-1.4,2.9c-0.3,1.1-0.4,2.2-0.4,3.3c0,1.3,0.2,2.5,0.5,3.6
			c0.4,1.1,0.9,2.1,1.5,2.9c0.6,0.8,1.4,1.4,2.3,1.9c0.9,0.5,1.9,0.7,3,0.7c1.1,0,2.1-0.2,3-0.7c0.9-0.5,1.7-1.1,2.4-1.9
			c0.7-0.8,1.2-1.8,1.6-2.9c0.4-1.1,0.6-2.4,0.6-3.7c0-1-0.1-2-0.4-3c-0.3-1.1-0.7-2-1.3-2.9c-0.6-0.9-1.3-1.6-2.3-2.2
			C-85.4,393.6-86.5,393.3-87.8,393.3z M-75.2,397c0-1,0-1.9,0-2.6c0-0.7-0.1-1.5-0.1-2.4h2v3.7h0.2c0.5-1.1,1.4-2.1,2.6-2.9
			c1.2-0.8,2.7-1.2,4.3-1.2c0.5,0,1.1,0.1,1.9,0.3c0.8,0.2,1.6,0.6,2.3,1.2c0.8,0.6,1.4,1.5,2,2.6c0.5,1.1,0.8,2.7,0.8,4.6v12.6h-2
			v-12.4c0-0.9-0.1-1.8-0.3-2.7c-0.2-0.9-0.5-1.6-0.9-2.3c-0.4-0.7-1-1.2-1.7-1.6c-0.7-0.4-1.6-0.6-2.6-0.6c-1.4,0-2.7,0.4-3.8,1.3
			c-1.1,0.9-1.9,2-2.3,3.4c-0.2,0.5-0.3,1.2-0.3,1.8v12.9h-2V397z M-53.9,402.2c0,1.7,0.2,3.2,0.6,4.3c0.4,1.2,1,2.1,1.7,2.9
			c0.7,0.8,1.5,1.3,2.5,1.6c0.9,0.3,1.9,0.5,3,0.5c1.4,0,2.5-0.1,3.4-0.4c0.9-0.3,1.6-0.5,2.2-0.8l0.5,1.6c-0.4,0.2-1.1,0.5-2.2,0.8
			c-1.1,0.3-2.5,0.5-4.2,0.5c-1.5,0-2.8-0.3-4-0.8c-1.2-0.5-2.2-1.2-3-2.2c-0.8-0.9-1.5-2-1.9-3.3c-0.4-1.3-0.7-2.7-0.7-4.2
			c0-1.7,0.2-3.3,0.7-4.7c0.5-1.4,1.1-2.5,1.9-3.5c0.8-1,1.8-1.7,2.9-2.2c1.1-0.5,2.3-0.8,3.6-0.8c1.7,0,3,0.3,4.1,1
			c1,0.7,1.8,1.5,2.4,2.5c0.6,1,1,2,1.2,3c0.2,1.1,0.3,2,0.3,2.8c0,0.3,0,0.5,0,0.7c0,0.2,0,0.4,0,0.6L-53.9,402.2z M-41,400.6
			c0-0.8-0.1-1.6-0.3-2.4c-0.2-0.9-0.5-1.6-0.9-2.4c-0.5-0.7-1.1-1.3-1.9-1.8c-0.8-0.5-1.8-0.7-3-0.7c-1.1,0-2,0.2-2.9,0.7
			c-0.8,0.5-1.5,1.1-2,1.8c-0.5,0.7-1,1.5-1.3,2.4c-0.3,0.9-0.5,1.7-0.6,2.5H-41z"/>
		<path class="st0" d="M-13.6,385.5h-10.8l-1.4,9.2c0.3-0.1,0.7-0.1,1.1-0.1c0.4,0,0.9,0,1.5,0c1,0,2.1,0.1,3.2,0.4
			c1.1,0.3,2.2,0.8,3.2,1.5c1,0.7,1.8,1.6,2.4,2.8c0.6,1.2,1,2.6,1,4.3c0,1.5-0.3,2.8-0.8,4c-0.5,1.2-1.2,2.2-2.1,3.1
			c-0.9,0.9-1.9,1.5-3.1,2c-1.2,0.5-2.4,0.7-3.8,0.7c-1.5,0-2.8-0.2-3.9-0.6c-1.2-0.4-2-0.8-2.7-1.2l0.8-1.7
			c0.5,0.4,1.3,0.7,2.4,1.1c1,0.4,2.2,0.6,3.5,0.6c1,0,2-0.2,2.9-0.6c0.9-0.4,1.7-0.9,2.4-1.5c0.7-0.7,1.2-1.5,1.6-2.4
			c0.4-0.9,0.6-1.9,0.6-3.1c0-2.3-0.7-4.1-2-5.5c-1.4-1.4-3.5-2.1-6.3-2.1c-0.9,0-1.6,0-2.3,0.1c-0.7,0.1-1.2,0.1-1.7,0.2l1.9-13
			h12.4V385.5z"/>
	</g>
	<path class="st0" d="M-162.2,387.7c1.1-1.3,1.8-3.1,1.6-4.9c-1.5,0.1-3.4,1-4.5,2.3c-1,1.1-1.8,3-1.6,4.7
		C-165,390-163.3,389-162.2,387.7 M-158.4,399c0,4.6,4,6.1,4.1,6.2c0,0.1-0.6,2.2-2.1,4.3c-1.3,1.9-2.6,3.7-4.7,3.7
		c-2,0-2.7-1.2-5-1.2c-2.3,0-3.1,1.2-5,1.2c-2,0.1-3.5-2-4.8-3.8c-2.6-3.8-4.6-10.7-1.9-15.3c1.3-2.3,3.7-3.8,6.3-3.8
		c2,0,3.8,1.3,5,1.3c1.2,0,3.5-1.6,5.8-1.4c1,0,3.8,0.4,5.6,3C-155.2,393.3-158.4,395.2-158.4,399"/>
	<path class="st0" d="M13.2,397.2c-1.4-0.6-2.4-1.1-3.1-1.7c-0.7-0.6-1-1.4-1-2.4c0-0.9,0.3-1.8,1-2.5c0.7-0.7,1.6-1.1,2.9-1.1
		c1,0,1.8,0.1,2.4,0.4c0.6,0.3,1.1,0.6,1.5,0.8l0.8-1.7c-0.5-0.3-1.1-0.6-1.9-0.9c-0.8-0.3-1.6-0.4-2.5-0.4c-1,0-1.8,0.1-2.6,0.4
		c-0.8,0.3-1.4,0.7-2,1.2c-0.5,0.5-0.9,1.1-1.2,1.8c-0.3,0.7-0.4,1.4-0.4,2.1c0,1.2,0.4,2.3,1.3,3.2c0.9,0.9,2.1,1.7,3.8,2.3
		c1.4,0.6,2.5,1.2,3.2,1.9c0.7,0.7,1,1.6,1,2.7c0,1.1-0.4,2-1.1,2.7c-0.8,0.8-1.9,1.1-3.5,1.1c-0.9,0-1.7-0.1-2.5-0.4
		c-0.8-0.3-1.4-0.6-2-1l-0.8,1.7c0.7,0.4,1.4,0.8,2.3,1c0.9,0.3,1.8,0.4,2.8,0.4c2,0,3.7-0.5,4.9-1.6c1.2-1,1.9-2.5,1.9-4.2
		c0-1.6-0.5-2.8-1.4-3.7C16.1,398.7,14.8,397.9,13.2,397.2z M28.3,391.3c0-0.3,0-0.6,0-1c0-0.7-0.1-1.4-0.2-2.1
		c-0.1-0.7-0.3-1.4-0.7-2c-0.3-0.6-0.7-1.2-1.2-1.7c-0.5-0.5-1.1-0.9-1.7-1.2c-0.6-0.3-1.3-0.5-2-0.7c-0.7-0.1-1.4-0.2-2.1-0.2
		c-0.3,0-0.6,0-1,0c-0.4,0-0.7,0-1.1,0H6.1c-0.3,0-0.7,0-1.1,0c-0.3,0-0.6,0-1,0c-0.7,0-1.4,0.1-2.1,0.2c-0.7,0.1-1.4,0.3-2,0.7
		c-0.6,0.3-1.2,0.7-1.7,1.2c-0.5,0.5-0.9,1.1-1.2,1.7c-0.3,0.6-0.5,1.3-0.7,2c-0.1,0.7-0.2,1.4-0.2,2.1c0,0.3,0,0.6,0,1
		c0,0.4,0,0.7,0,1.1v12.2c0,0.4,0,0.7,0,1.1c0,0.3,0,0.6,0,1c0,0.7,0.1,1.4,0.2,2.1c0.1,0.7,0.3,1.4,0.7,2c0.3,0.6,0.7,1.2,1.2,1.7
		c0.5,0.5,1.1,0.9,1.7,1.2c0.6,0.3,1.3,0.5,2,0.7c0.7,0.1,1.4,0.2,2.1,0.2c0.3,0,0.6,0,1,0c0.3,0,0.6,0,0.8,0h12.7
		c0.3,0,0.6,0,0.8,0c0.3,0,0.6,0,1,0c0.7,0,1.4-0.1,2.1-0.2c0.7-0.1,1.4-0.3,2-0.7c0.6-0.3,1.2-0.7,1.7-1.2c0.5-0.5,0.9-1.1,1.2-1.7
		c0.3-0.6,0.5-1.3,0.7-2c0.1-0.7,0.2-1.4,0.2-2.1c0-0.3,0-0.6,0-1c0-0.3,0-0.6,0-0.8v-12.7C28.3,391.9,28.3,391.6,28.3,391.3z
		 M27,404.8c0,0.3,0,0.6,0,0.8c0,0.3,0,0.6,0,0.9c0,0.6,0,1.3-0.2,1.9c-0.1,0.6-0.3,1.2-0.5,1.7c-0.3,0.5-0.6,1-1,1.4
		c-0.4,0.4-0.9,0.7-1.4,1c-0.5,0.3-1,0.4-1.7,0.5c-0.7,0.1-1.3,0.2-1.9,0.2c-0.3,0-0.6,0-0.9,0c-0.3,0-0.6,0-0.8,0H5.9
		c-0.3,0-0.6,0-0.8,0c-0.3,0-0.6,0-0.9,0c-0.6,0-1.3,0-1.9-0.2c-0.6-0.1-1.2-0.3-1.7-0.5c-0.5-0.3-1-0.6-1.4-1
		c-0.4-0.4-0.8-0.9-1-1.4c-0.3-0.5-0.4-1-0.5-1.7c-0.1-0.7-0.2-1.4-0.2-1.9c0-0.3,0-0.6,0-0.9c0-0.4,0-0.7,0-1.1v-12.2
		c0-0.3,0-0.7,0-1.1c0-0.3,0-0.6,0-0.9c0-0.5,0-1.3,0.2-1.9c0.1-0.6,0.3-1.2,0.5-1.7c0.3-0.5,0.6-1,1-1.4c0.4-0.4,0.9-0.8,1.4-1
		c0.5-0.3,1-0.4,1.7-0.5c0.7-0.1,1.3-0.1,1.9-0.2c0.3,0,0.6,0,0.9,0c0.4,0,0.7,0,1,0h12.2c0.3,0,0.7,0,1,0c0.3,0,0.6,0,0.9,0
		c0.6,0,1.3,0,1.9,0.2c0.6,0.1,1.2,0.3,1.7,0.5c0.5,0.3,1,0.6,1.4,1c0.4,0.4,0.8,0.9,1,1.4c0.3,0.5,0.4,1,0.5,1.7
		c0.1,0.7,0.2,1.4,0.2,1.9c0,0.3,0,0.6,0,0.9c0,0.3,0,0.6,0,0.8V404.8z"/>
</g>
</svg>
