<?xml version="1.0" encoding="utf-8"?>
<!-- Generator: Adobe Illustrator 19.1.0, SVG Export Plug-In . SVG Version: 6.00 Build 0)  -->
<svg version="1.1" id="Layer_1" xmlns="http://www.w3.org/2000/svg" xmlns:xlink="http://www.w3.org/1999/xlink" x="0px" y="0px"
	 viewBox="0 0 287 52" style="enable-background:new 0 0 287 52;" xml:space="preserve">
<g>
	<g>
		<g>
			<g>
				<path d="M42.8,13.1c-0.5,0-0.9,0.2-1.2,0.5c-0.3,0.3-0.5,0.8-0.5,1.3c0,0.5,0.2,0.9,0.5,1.2c0.3,0.3,0.7,0.5,1.2,0.5
					c0.5,0,0.9-0.2,1.3-0.5c0.3-0.3,0.5-0.7,0.5-1.2c0-0.5-0.2-0.9-0.5-1.3C43.7,13.3,43.3,13.1,42.8,13.1"/>
				<rect x="41.8" y="21.2" width="2" height="20.8"/>
				<path d="M62.3,15c-0.8-0.8-1.8-1.4-3.1-1.8c-1.3-0.4-2.8-0.6-4.5-0.6c-1.2,0-2.3,0.1-3.3,0.2c-1,0.1-1.9,0.2-2.8,0.4V42h2V29.5
					c1,0.2,2.1,0.3,3.4,0.3c1.5,0,2.9-0.2,4.2-0.6c1.3-0.4,2.4-0.9,3.3-1.7c0.9-0.8,1.7-1.7,2.2-2.8c0.5-1.1,0.8-2.4,0.8-3.9
					c0-1.2-0.2-2.3-0.6-3.3C63.6,16.5,63,15.7,62.3,15 M60.3,26.3c-1.4,1.2-3.5,1.8-6,1.8c-0.7,0-1.3,0-2-0.1
					c-0.6-0.1-1.2-0.2-1.7-0.3v-13c0.4-0.1,0.9-0.2,1.6-0.2c0.7-0.1,1.5-0.1,2.4-0.1c1.2,0,2.2,0.1,3.2,0.4c1,0.3,1.8,0.7,2.5,1.2
					c0.7,0.5,1.2,1.2,1.6,2.1c0.4,0.8,0.6,1.8,0.6,2.9C62.5,23.3,61.7,25,60.3,26.3"/>
				<path d="M80.6,22.2c-0.8-0.6-1.5-1-2.3-1.2c-0.8-0.2-1.4-0.3-1.9-0.3c-1.6,0-3,0.4-4.2,1.1c-1.2,0.7-2.1,1.7-2.7,3h-0.1V11.3h-2
					V42h2V29.2c0-0.8,0.1-1.5,0.3-2c0.4-1.3,1.2-2.4,2.3-3.3c1.1-0.9,2.4-1.4,3.8-1.4c1,0,1.9,0.2,2.6,0.6c0.7,0.4,1.3,0.9,1.7,1.6
					c0.4,0.7,0.7,1.4,0.9,2.3c0.2,0.9,0.3,1.7,0.3,2.7V42h2V29.3c0-1.9-0.3-3.4-0.8-4.5C82,23.7,81.3,22.8,80.6,22.2"/>
				<path d="M102.9,23.6c-0.8-0.9-1.8-1.7-3-2.2c-1.2-0.5-2.4-0.8-3.8-0.8c-1.3,0-2.5,0.2-3.6,0.7c-1.1,0.5-2.2,1.2-3,2.1
					c-0.9,0.9-1.6,2.1-2.1,3.5c-0.5,1.4-0.8,3-0.8,4.7c0,1.6,0.2,3.1,0.7,4.4c0.5,1.3,1.1,2.4,2,3.4c0.8,0.9,1.8,1.7,3,2.1
					c1.1,0.5,2.4,0.7,3.7,0.7c1.1,0,2.3-0.2,3.4-0.6c1.1-0.4,2.2-1.1,3.1-2c0.9-0.9,1.7-2,2.3-3.4c0.6-1.4,0.9-3.1,0.9-5
					c0-1.6-0.2-3.1-0.7-4.4C104.3,25.7,103.7,24.6,102.9,23.6 M102.9,35.2c-0.4,1.1-0.9,2.1-1.6,2.9c-0.7,0.8-1.5,1.4-2.4,1.9
					c-0.9,0.5-1.9,0.7-3,0.7c-1.1,0-2.1-0.2-3-0.7c-0.9-0.5-1.7-1.1-2.3-1.9c-0.7-0.8-1.2-1.8-1.5-2.9c-0.4-1.1-0.5-2.3-0.5-3.6
					c0-1.1,0.1-2.2,0.4-3.3c0.3-1.1,0.7-2.1,1.4-2.9c0.6-0.9,1.4-1.6,2.3-2.1c0.9-0.6,2.1-0.8,3.4-0.8c1.3,0,2.5,0.3,3.4,0.9
					c0.9,0.6,1.7,1.3,2.3,2.2c0.6,0.9,1,1.9,1.3,2.9c0.3,1.1,0.4,2.1,0.4,3C103.5,32.9,103.3,34.1,102.9,35.2"/>
				<path d="M122,22.2c-0.8-0.6-1.5-1-2.3-1.2c-0.8-0.2-1.4-0.3-1.9-0.3c-1.7,0-3.1,0.4-4.3,1.2c-1.2,0.8-2.1,1.8-2.6,2.9h-0.2v-3.7
					h-2c0.1,0.8,0.1,1.6,0.1,2.4c0,0.8,0,1.6,0,2.6V42h2V29.1c0-0.7,0.1-1.3,0.3-1.8c0.4-1.4,1.2-2.5,2.3-3.4
					c1.1-0.9,2.4-1.3,3.8-1.3c1,0,1.9,0.2,2.6,0.6c0.7,0.4,1.3,0.9,1.7,1.6c0.4,0.7,0.7,1.4,0.9,2.3c0.2,0.9,0.3,1.8,0.3,2.7V42h2
					V29.4c0-1.9-0.3-3.4-0.8-4.6C123.4,23.7,122.8,22.8,122,22.2"/>
				<path d="M143.5,24.3c-0.6-1-1.4-1.8-2.4-2.5c-1-0.7-2.4-1-4.1-1c-1.3,0-2.5,0.3-3.6,0.8c-1.1,0.5-2.1,1.3-2.9,2.2
					c-0.8,1-1.4,2.2-1.9,3.5c-0.5,1.4-0.7,2.9-0.7,4.6c0,1.5,0.2,2.9,0.7,4.2c0.4,1.3,1.1,2.4,1.9,3.3c0.8,0.9,1.8,1.6,3,2.2
					c1.2,0.5,2.5,0.8,4,0.8c1.7,0,3.1-0.2,4.2-0.5c1.1-0.3,1.8-0.6,2.2-0.8l-0.5-1.6c-0.6,0.3-1.3,0.5-2.2,0.8
					c-0.9,0.3-2,0.4-3.4,0.4c-1,0-2-0.2-3-0.5c-0.9-0.3-1.8-0.9-2.5-1.6c-0.7-0.8-1.3-1.7-1.7-2.9c-0.4-1.2-0.6-2.6-0.6-4.3h15
					c0-0.2,0-0.4,0-0.6v-0.7c0-0.8-0.1-1.7-0.3-2.8C144.5,26.3,144.1,25.2,143.5,24.3 M130.1,29.7c0.1-0.8,0.3-1.6,0.6-2.5
					c0.3-0.9,0.7-1.6,1.3-2.4c0.5-0.7,1.2-1.3,2-1.8c0.8-0.5,1.8-0.7,2.8-0.7c1.2,0,2.2,0.2,3,0.7c0.8,0.5,1.4,1.1,1.9,1.8
					c0.5,0.7,0.8,1.5,1,2.4c0.2,0.9,0.3,1.7,0.3,2.4H130.1z"/>
			</g>
			<g>
				<path d="M170.4,14.5c-2,0-3.7,0.3-5.3,1c-1.6,0.7-2.9,1.6-4.1,2.8c-1.1,1.2-2,2.5-2.7,4.1c-0.7,1.5-1.1,3.2-1.2,4.8h0.1
					c0.7-1.1,1.7-2,2.9-2.8c1.2-0.8,2.7-1.2,4.5-1.2c1.3,0,2.5,0.2,3.5,0.7c1,0.5,1.9,1.1,2.7,1.9c0.7,0.8,1.3,1.8,1.7,2.9
					c0.4,1.1,0.6,2.4,0.6,3.7c0,1.3-0.2,2.5-0.6,3.8c-0.4,1.2-1,2.3-1.7,3.2c-0.7,0.9-1.7,1.7-2.8,2.2c-1.1,0.6-2.4,0.8-3.8,0.8
					c-1.3,0-2.5-0.3-3.6-0.8c-1.1-0.5-2.1-1.3-2.9-2.3c-0.9-1-1.5-2.3-2-3.8c-0.5-1.5-0.7-3.2-0.7-5.2c0-2.4,0.3-4.7,1-6.8
					c0.7-2.1,1.6-4,2.9-5.6c1.3-1.6,2.9-2.9,4.9-3.8c1.9-1,4.2-1.5,6.7-1.6V14.5z M164.3,40.7c1,0,1.8-0.2,2.6-0.6
					c0.8-0.4,1.5-0.9,2.1-1.6c0.6-0.7,1-1.5,1.4-2.5c0.3-1,0.5-2.1,0.5-3.4c0-1.3-0.2-2.4-0.5-3.3c-0.3-1-0.8-1.7-1.4-2.4
					c-0.6-0.6-1.3-1.1-2.2-1.4c-0.8-0.3-1.7-0.5-2.7-0.5c-1.3,0-2.6,0.4-3.8,1.1c-1.2,0.8-2.1,1.8-2.8,3c-0.1,0.2-0.2,0.5-0.3,0.8
					c-0.1,0.3-0.1,0.6-0.1,0.9c0,1.5,0.2,2.8,0.5,4.1c0.3,1.2,0.8,2.3,1.4,3.1c0.6,0.9,1.4,1.5,2.3,2
					C162.1,40.5,163.1,40.7,164.3,40.7L164.3,40.7z"/>
			</g>
		</g>
		<g>
			<g>
				<path d="M203.3,43.7h-8.7c-2.4,0-3.9,0-5.5-0.4c-1.5-0.4-2.7-1.2-3.8-2.2c-1.1-1.1-1.8-2.3-2.2-3.8c-0.4-1.5-0.4-3-0.4-5.5v-8.7
					c0-2.4,0-3.9,0.4-5.5c0.4-1.5,1.1-2.8,2.2-3.8c1.1-1.1,2.3-1.8,3.8-2.2c1.5-0.4,3-0.4,5.5-0.4h8.7c2.4,0,3.9,0,5.4,0.4
					c1.5,0.4,2.7,1.1,3.8,2.2c1.1,1.1,1.8,2.3,2.2,3.8c0.4,1.5,0.4,3,0.4,5.5v8.7c0,2.5,0,3.9-0.4,5.5c-0.4,1.5-1.1,2.8-2.2,3.8
					c-1.1,1.1-2.3,1.8-3.8,2.2C207.2,43.7,205.7,43.7,203.3,43.7 M194.6,12.6c-2.3,0-3.7,0-5.1,0.4c-1.2,0.3-2.3,1-3.2,1.8
					c-0.9,0.9-1.5,1.9-1.8,3.2c-0.4,1.4-0.4,2.7-0.4,5.1v8.7c0,2.3,0,3.7,0.4,5.1c0.3,1.2,1,2.3,1.8,3.2c0.9,0.9,1.9,1.5,3.2,1.8
					c1.4,0.4,2.8,0.4,5.1,0.4h8.7c2.3,0,3.7,0,5-0.4c1.2-0.3,2.3-0.9,3.2-1.8c0.9-0.9,1.5-1.9,1.8-3.2c0.4-1.4,0.4-2.7,0.4-5.1v-8.7
					c0-2.3,0-3.7-0.4-5.1c-0.3-1.2-1-2.3-1.8-3.2c-0.9-0.9-1.9-1.5-3.2-1.8c-1.4-0.4-2.8-0.4-5-0.4H194.6z"/>
				<path d="M194.1,34.2c0.5,0.3,1.1,0.6,1.8,0.9c0.7,0.3,1.5,0.4,2.3,0.4c1.5,0,2.6-0.3,3.3-1c0.7-0.7,1.1-1.5,1.1-2.5
					c0-1-0.3-1.8-0.9-2.4c-0.6-0.6-1.6-1.2-2.9-1.7c-1.5-0.6-2.7-1.3-3.5-2.1c-0.8-0.8-1.2-1.8-1.2-2.9c0-0.7,0.1-1.3,0.4-1.9
					c0.3-0.6,0.6-1.1,1.1-1.6c0.5-0.5,1.1-0.8,1.8-1.1c0.7-0.3,1.5-0.4,2.4-0.4c0.8,0,1.6,0.1,2.3,0.3c0.7,0.2,1.3,0.5,1.8,0.8
					l-0.8,1.5c-0.3-0.2-0.8-0.5-1.4-0.7c-0.6-0.3-1.3-0.4-2.3-0.4c-1.2,0-2.1,0.3-2.7,1c-0.6,0.6-0.9,1.4-0.9,2.2
					c0,0.9,0.3,1.7,0.9,2.2c0.6,0.5,1.6,1,2.9,1.5c1.5,0.6,2.7,1.3,3.5,2.1c0.8,0.8,1.2,1.9,1.2,3.3c0,1.6-0.5,2.9-1.7,3.8
					c-1.2,0.9-2.7,1.4-4.6,1.4c-0.9,0-1.8-0.1-2.6-0.3c-0.8-0.2-1.5-0.5-2.1-0.9L194.1,34.2z"/>
				<g>
					<g>
						<path d="M225.9,13.1c0.8-0.1,1.8-0.3,2.8-0.4c1-0.1,2.1-0.2,3.3-0.2c1.7,0,3.2,0.2,4.5,0.6c1.3,0.4,2.3,1,3.1,1.8
							c0.7,0.7,1.2,1.5,1.6,2.5c0.4,1,0.6,2.1,0.6,3.3c0,1.5-0.3,2.8-0.8,3.9c-0.5,1.1-1.3,2.1-2.2,2.8c-0.9,0.8-2,1.3-3.3,1.7
							c-1.3,0.4-2.7,0.6-4.1,0.6c-1.3,0-2.4-0.1-3.4-0.3V42h-2V13.1z M227.9,27.7c0.5,0.1,1,0.2,1.7,0.3c0.6,0.1,1.3,0.1,1.9,0.1
							c2.6,0,4.6-0.6,6-1.8c1.4-1.2,2.2-3,2.2-5.3c0-1.1-0.2-2.1-0.6-2.9c-0.4-0.8-0.9-1.5-1.6-2.1c-0.7-0.5-1.5-0.9-2.5-1.2
							c-1-0.3-2-0.4-3.2-0.4c-0.9,0-1.7,0-2.4,0.1c-0.7,0.1-1.2,0.2-1.6,0.2V27.7z"/>
						<path d="M244.7,11.3h2V42h-2V11.3z"/>
						<path d="M267.1,36.9c0,0.9,0,1.8,0,2.6c0,0.8,0.1,1.7,0.1,2.4h-1.9v-3.6h-0.2c-0.3,0.5-0.6,0.9-1,1.4
							c-0.4,0.5-0.9,0.9-1.5,1.3c-0.6,0.4-1.2,0.7-2,1c-0.8,0.2-1.6,0.4-2.5,0.4c-0.7,0-1.4-0.1-2.2-0.3c-0.8-0.2-1.6-0.7-2.2-1.3
							c-0.7-0.7-1.3-1.6-1.8-2.8c-0.5-1.2-0.7-2.7-0.7-4.6V21.2h2V33c0,1.1,0.1,2.2,0.3,3.1c0.2,0.9,0.5,1.8,0.9,2.4
							c0.4,0.7,1,1.2,1.6,1.6c0.7,0.4,1.5,0.6,2.6,0.6c0.8,0,1.4-0.1,2.1-0.4c0.6-0.2,1.2-0.6,1.7-1c0.5-0.4,0.9-0.9,1.3-1.3
							c0.4-0.5,0.6-1,0.8-1.5c0.1-0.3,0.2-0.7,0.3-1.1c0.1-0.4,0.1-0.8,0.1-1.2V21.2h2V36.9z"/>
						<path d="M270.9,39.3c0.5,0.3,1.2,0.7,2,1c0.8,0.3,1.6,0.5,2.6,0.5c1.6,0,2.8-0.4,3.6-1.2c0.8-0.8,1.2-1.7,1.2-2.8
							c0-1.1-0.3-2-1-2.8c-0.7-0.7-1.8-1.4-3.2-2c-1.7-0.7-3-1.5-3.9-2.4c-0.9-0.9-1.3-2-1.3-3.3c0-0.8,0.1-1.5,0.4-2.1
							c0.3-0.7,0.7-1.3,1.3-1.8c0.5-0.5,1.2-0.9,2-1.2c0.8-0.3,1.7-0.5,2.6-0.5c0.9,0,1.8,0.1,2.6,0.4c0.8,0.3,1.4,0.6,2,0.9
							l-0.8,1.7c-0.3-0.3-0.8-0.5-1.5-0.8c-0.7-0.3-1.5-0.4-2.5-0.4c-1.3,0-2.3,0.4-3,1.1c-0.7,0.7-1,1.6-1,2.5c0,1.1,0.3,1.9,1,2.5
							c0.7,0.6,1.7,1.2,3.2,1.8c1.6,0.7,2.9,1.5,3.9,2.4c0.9,0.9,1.4,2.2,1.4,3.8c0,1.8-0.6,3.3-1.9,4.3c-1.3,1.1-3,1.6-5,1.6
							c-1,0-2-0.1-2.9-0.4c-0.9-0.3-1.7-0.6-2.3-1L270.9,39.3z"/>
					</g>
				</g>
			</g>
		</g>
	</g>
	<g>
		<g>
			<g>
				<path d="M24.6,16.8c1.1-1.3,1.8-3.1,1.6-4.9c-1.5,0.1-3.4,1-4.5,2.3c-1,1.1-1.8,3-1.6,4.7C21.8,19.1,23.5,18.1,24.6,16.8
					 M28.4,28.2c0,4.6,4.1,6.2,4.1,6.2c0,0.1-0.6,2.2-2.1,4.3c-1.3,1.9-2.6,3.7-4.7,3.7c-2,0-2.7-1.2-5-1.2c-2.3,0-3.1,1.2-5,1.3
					c-2,0.1-3.5-2-4.8-3.9C8.3,34.8,6.3,27.9,9,23.2c1.3-2.3,3.7-3.8,6.3-3.8c2,0,3.8,1.3,5,1.3c1.2,0,3.5-1.6,5.8-1.4
					c1,0,3.8,0.4,5.6,3C31.6,22.4,28.4,24.3,28.4,28.2"/>
			</g>
		</g>
	</g>
</g>
</svg>
