<?xml version="1.0" encoding="utf-8"?>
<!-- Generator: Adobe Illustrator 19.1.0, SVG Export Plug-In . SVG Version: 6.00 Build 0)  -->
<svg version="1.1" id="Layer_1" xmlns="http://www.w3.org/2000/svg" xmlns:xlink="http://www.w3.org/1999/xlink" x="0px" y="0px"
	 viewBox="0 0 425.2 141.7" style="enable-background:new 0 0 425.2 141.7;" xml:space="preserve">
<g>
	<g>
		<g>
			<g>
				<path d="M110.4,56.9c-0.5,0-0.9,0.2-1.2,0.5c-0.3,0.3-0.5,0.8-0.5,1.3c0,0.5,0.2,0.9,0.5,1.2c0.3,0.3,0.7,0.5,1.2,0.5
					c0.5,0,0.9-0.2,1.3-0.5c0.3-0.3,0.5-0.7,0.5-1.2c0-0.5-0.2-0.9-0.5-1.3C111.3,57.1,110.9,56.9,110.4,56.9"/>
				<rect x="109.4" y="65.1" width="2" height="20.8"/>
				<path d="M129.9,58.9c-0.8-0.8-1.8-1.4-3.1-1.8c-1.3-0.4-2.8-0.6-4.5-0.6c-1.2,0-2.3,0.1-3.3,0.2c-1,0.1-1.9,0.2-2.8,0.4v28.9h2
					V73.4c1,0.2,2.1,0.3,3.4,0.3c1.5,0,2.9-0.2,4.2-0.6c1.3-0.4,2.4-0.9,3.3-1.7c0.9-0.8,1.7-1.7,2.2-2.8c0.5-1.1,0.8-2.4,0.8-3.9
					c0-1.2-0.2-2.3-0.6-3.3C131.1,60.4,130.6,59.6,129.9,58.9 M127.9,70.1c-1.4,1.2-3.5,1.8-6,1.8c-0.7,0-1.3,0-2-0.1
					c-0.6-0.1-1.2-0.2-1.7-0.3v-13c0.4-0.1,0.9-0.2,1.6-0.2c0.7-0.1,1.5-0.1,2.4-0.1c1.2,0,2.2,0.1,3.2,0.4c1,0.3,1.8,0.7,2.5,1.2
					c0.7,0.5,1.2,1.2,1.6,2.1c0.4,0.8,0.6,1.8,0.6,2.9C130.1,67.1,129.3,68.9,127.9,70.1"/>
				<path d="M148.2,66.1c-0.8-0.6-1.5-1-2.3-1.2c-0.8-0.2-1.4-0.3-1.9-0.3c-1.6,0-3,0.4-4.2,1.1c-1.2,0.7-2.1,1.7-2.7,3H137V55.1h-2
					v30.7h2V73.1c0-0.8,0.1-1.5,0.3-2c0.4-1.3,1.2-2.4,2.3-3.3c1.1-0.9,2.4-1.4,3.8-1.4c1,0,1.9,0.2,2.6,0.6
					c0.7,0.4,1.3,0.9,1.7,1.6c0.4,0.7,0.7,1.4,0.9,2.3c0.2,0.9,0.3,1.7,0.3,2.7v12.4h2V73.2c0-1.9-0.3-3.4-0.8-4.5
					C149.6,67.6,148.9,66.7,148.2,66.1"/>
				<path d="M170.5,67.5c-0.8-0.9-1.8-1.7-3-2.2c-1.2-0.5-2.4-0.8-3.8-0.8c-1.3,0-2.5,0.2-3.6,0.7c-1.1,0.5-2.2,1.2-3,2.1
					c-0.9,0.9-1.6,2.1-2.1,3.5c-0.5,1.4-0.8,3-0.8,4.7c0,1.6,0.2,3.1,0.7,4.4c0.5,1.3,1.1,2.4,2,3.4c0.8,0.9,1.8,1.7,3,2.1
					c1.1,0.5,2.4,0.7,3.7,0.7c1.1,0,2.3-0.2,3.4-0.6c1.1-0.4,2.2-1.1,3.1-2c0.9-0.9,1.7-2,2.3-3.4c0.6-1.4,0.9-3.1,0.9-5
					c0-1.6-0.2-3.1-0.7-4.4C171.9,69.6,171.3,68.4,170.5,67.5 M170.5,79.1c-0.4,1.1-0.9,2.1-1.6,2.9c-0.7,0.8-1.5,1.4-2.4,1.9
					c-0.9,0.5-1.9,0.7-3,0.7c-1.1,0-2.1-0.2-3-0.7c-0.9-0.5-1.7-1.1-2.3-1.9c-0.7-0.8-1.2-1.8-1.5-2.9c-0.4-1.1-0.5-2.3-0.5-3.6
					c0-1.1,0.1-2.2,0.4-3.3c0.3-1.1,0.7-2.1,1.4-2.9c0.6-0.9,1.4-1.6,2.3-2.1c0.9-0.6,2.1-0.8,3.4-0.8c1.3,0,2.5,0.3,3.4,0.9
					c0.9,0.6,1.7,1.3,2.3,2.2c0.6,0.9,1,1.9,1.3,2.9c0.3,1.1,0.4,2.1,0.4,3C171,76.7,170.9,78,170.5,79.1"/>
				<path d="M189.6,66.1c-0.8-0.6-1.5-1-2.3-1.2c-0.8-0.2-1.4-0.3-1.9-0.3c-1.7,0-3.1,0.4-4.3,1.2c-1.2,0.8-2.1,1.8-2.6,2.9h-0.2
					v-3.7h-2c0.1,0.8,0.1,1.6,0.1,2.4c0,0.8,0,1.6,0,2.6v15.8h2V72.9c0-0.7,0.1-1.3,0.3-1.8c0.4-1.4,1.2-2.5,2.3-3.4
					c1.1-0.9,2.4-1.3,3.8-1.3c1,0,1.9,0.2,2.6,0.6c0.7,0.4,1.3,0.9,1.7,1.6c0.4,0.7,0.7,1.4,0.9,2.3c0.2,0.9,0.3,1.8,0.3,2.7v12.4h2
					V73.3c0-1.9-0.3-3.4-0.8-4.6C191,67.6,190.4,66.7,189.6,66.1"/>
				<path d="M211.1,68.1c-0.6-1-1.4-1.8-2.4-2.5c-1-0.7-2.4-1-4.1-1c-1.3,0-2.5,0.3-3.6,0.8c-1.1,0.5-2.1,1.3-2.9,2.2
					c-0.8,1-1.4,2.2-1.9,3.5c-0.5,1.4-0.7,2.9-0.7,4.6c0,1.5,0.2,2.9,0.7,4.2c0.4,1.3,1.1,2.4,1.9,3.3c0.8,0.9,1.8,1.6,3,2.2
					c1.2,0.5,2.5,0.8,4,0.8c1.7,0,3.1-0.2,4.2-0.5c1.1-0.3,1.8-0.6,2.2-0.8l-0.5-1.6c-0.6,0.3-1.3,0.5-2.2,0.8
					c-0.9,0.3-2,0.4-3.4,0.4c-1,0-2-0.2-3-0.5c-0.9-0.3-1.8-0.9-2.5-1.6c-0.7-0.8-1.3-1.7-1.7-2.9c-0.4-1.2-0.6-2.6-0.6-4.3h15
					c0-0.2,0-0.4,0-0.6v-0.7c0-0.8-0.1-1.7-0.3-2.8C212.1,70.1,211.7,69.1,211.1,68.1 M197.7,73.6c0.1-0.8,0.3-1.6,0.6-2.5
					c0.3-0.9,0.7-1.6,1.3-2.4c0.5-0.7,1.2-1.3,2-1.8c0.8-0.5,1.8-0.7,2.8-0.7c1.2,0,2.2,0.2,3,0.7c0.8,0.5,1.4,1.1,1.9,1.8
					c0.5,0.7,0.8,1.5,1,2.4c0.2,0.9,0.3,1.7,0.3,2.4H197.7z"/>
			</g>
			<g>
				<path d="M238,58.3c-2,0-3.7,0.3-5.3,1c-1.6,0.7-2.9,1.6-4.1,2.8c-1.1,1.2-2,2.5-2.7,4.1c-0.7,1.5-1.1,3.2-1.2,4.8h0.1
					c0.7-1.1,1.7-2,2.9-2.8c1.2-0.8,2.7-1.2,4.5-1.2c1.3,0,2.5,0.2,3.5,0.7c1,0.5,1.9,1.1,2.7,1.9c0.7,0.8,1.3,1.8,1.7,2.9
					c0.4,1.1,0.6,2.4,0.6,3.7c0,1.3-0.2,2.5-0.6,3.8c-0.4,1.2-1,2.3-1.7,3.2c-0.7,0.9-1.7,1.7-2.8,2.2c-1.1,0.6-2.4,0.8-3.8,0.8
					c-1.3,0-2.5-0.3-3.6-0.8c-1.1-0.5-2.1-1.3-2.9-2.3c-0.9-1-1.5-2.3-2-3.8c-0.5-1.5-0.7-3.2-0.7-5.2c0-2.4,0.3-4.7,1-6.8
					c0.7-2.1,1.6-4,2.9-5.6c1.3-1.6,2.9-2.9,4.9-3.8c1.9-1,4.2-1.5,6.7-1.6V58.3z M231.9,84.6c1,0,1.8-0.2,2.6-0.6
					c0.8-0.4,1.5-0.9,2.1-1.6c0.6-0.7,1-1.5,1.4-2.5c0.3-1,0.5-2.1,0.5-3.4c0-1.3-0.2-2.4-0.5-3.3c-0.3-1-0.8-1.7-1.4-2.4
					c-0.6-0.6-1.3-1.1-2.2-1.4c-0.8-0.3-1.7-0.5-2.7-0.5c-1.3,0-2.6,0.4-3.8,1.1c-1.2,0.8-2.1,1.8-2.8,3c-0.1,0.2-0.2,0.5-0.3,0.8
					c-0.1,0.3-0.1,0.6-0.1,0.9c0,1.5,0.2,2.8,0.5,4.1c0.3,1.2,0.8,2.3,1.4,3.1c0.6,0.9,1.4,1.5,2.3,2
					C229.7,84.3,230.7,84.6,231.9,84.6L231.9,84.6z"/>
			</g>
		</g>
		<g>
			<g>
				<path d="M270.9,87.6h-8.7c-2.4,0-3.9,0-5.5-0.4c-1.5-0.4-2.7-1.2-3.8-2.2c-1.1-1.1-1.8-2.3-2.2-3.8c-0.4-1.5-0.4-3-0.4-5.5v-8.7
					c0-2.4,0-3.9,0.4-5.5c0.4-1.5,1.1-2.8,2.2-3.8c1.1-1.1,2.3-1.8,3.8-2.2c1.5-0.4,3-0.4,5.5-0.4h8.7c2.4,0,3.9,0,5.4,0.4
					c1.5,0.4,2.7,1.1,3.8,2.2c1.1,1.1,1.8,2.3,2.2,3.8c0.4,1.5,0.4,3,0.4,5.5v8.7c0,2.5,0,3.9-0.4,5.5c-0.4,1.5-1.1,2.8-2.2,3.8
					c-1.1,1.1-2.3,1.8-3.8,2.2C274.8,87.6,273.3,87.6,270.9,87.6 M262.2,56.5c-2.3,0-3.7,0-5.1,0.4c-1.2,0.3-2.3,1-3.2,1.8
					c-0.9,0.9-1.5,1.9-1.8,3.2c-0.4,1.4-0.4,2.7-0.4,5.1v8.7c0,2.3,0,3.7,0.4,5.1c0.3,1.2,1,2.3,1.8,3.2c0.9,0.9,1.9,1.5,3.2,1.8
					c1.4,0.4,2.8,0.4,5.1,0.4h8.7c2.3,0,3.7,0,5-0.4c1.2-0.3,2.3-0.9,3.2-1.8c0.9-0.9,1.5-1.9,1.8-3.2c0.4-1.4,0.4-2.7,0.4-5.1v-8.7
					c0-2.3,0-3.7-0.4-5.1c-0.3-1.2-1-2.3-1.8-3.2c-0.9-0.9-1.9-1.5-3.2-1.8c-1.4-0.4-2.8-0.4-5-0.4H262.2z"/>
				<path d="M261.7,78.1c0.5,0.3,1.1,0.6,1.8,0.9c0.7,0.3,1.5,0.4,2.3,0.4c1.5,0,2.6-0.3,3.3-1c0.7-0.7,1.1-1.5,1.1-2.5
					c0-1-0.3-1.8-0.9-2.4c-0.6-0.6-1.6-1.2-2.9-1.7c-1.5-0.6-2.7-1.3-3.5-2.1c-0.8-0.8-1.2-1.8-1.2-2.9c0-0.7,0.1-1.3,0.4-1.9
					c0.3-0.6,0.6-1.1,1.1-1.6c0.5-0.5,1.1-0.8,1.8-1.1c0.7-0.3,1.5-0.4,2.4-0.4c0.8,0,1.6,0.1,2.3,0.3c0.7,0.2,1.3,0.5,1.8,0.8
					l-0.8,1.5c-0.3-0.2-0.8-0.5-1.4-0.7c-0.6-0.3-1.3-0.4-2.3-0.4c-1.2,0-2.1,0.3-2.7,1c-0.6,0.6-0.9,1.4-0.9,2.2
					c0,0.9,0.3,1.7,0.9,2.2c0.6,0.5,1.6,1,2.9,1.5c1.5,0.6,2.7,1.3,3.5,2.1c0.8,0.8,1.2,1.9,1.2,3.3c0,1.6-0.5,2.9-1.7,3.8
					c-1.2,0.9-2.7,1.4-4.6,1.4c-0.9,0-1.8-0.1-2.6-0.3c-0.8-0.2-1.5-0.5-2.1-0.9L261.7,78.1z"/>
				<g>
					<g>
						<path d="M293.5,57c0.8-0.1,1.8-0.3,2.8-0.4c1-0.1,2.1-0.2,3.3-0.2c1.7,0,3.2,0.2,4.5,0.6c1.3,0.4,2.3,1,3.1,1.8
							c0.7,0.7,1.2,1.5,1.6,2.5c0.4,1,0.6,2.1,0.6,3.3c0,1.5-0.3,2.8-0.8,3.9c-0.5,1.1-1.3,2.1-2.2,2.8c-0.9,0.8-2,1.3-3.3,1.7
							c-1.3,0.4-2.7,0.6-4.1,0.6c-1.3,0-2.4-0.1-3.4-0.3v12.5h-2V57z M295.5,71.6c0.5,0.1,1,0.2,1.7,0.3c0.6,0.1,1.3,0.1,1.9,0.1
							c2.6,0,4.6-0.6,6-1.8c1.4-1.2,2.2-3,2.2-5.3c0-1.1-0.2-2.1-0.6-2.9c-0.4-0.8-0.9-1.5-1.6-2.1c-0.7-0.5-1.5-0.9-2.5-1.2
							c-1-0.3-2-0.4-3.2-0.4c-0.9,0-1.7,0-2.4,0.1c-0.7,0.1-1.2,0.2-1.6,0.2V71.6z"/>
						<path d="M312.3,55.1h2v30.7h-2V55.1z"/>
						<path d="M334.7,80.8c0,0.9,0,1.8,0,2.6c0,0.8,0.1,1.7,0.1,2.4h-1.9v-3.6h-0.2c-0.3,0.5-0.6,0.9-1,1.4
							c-0.4,0.5-0.9,0.9-1.5,1.3c-0.6,0.4-1.2,0.7-2,1c-0.8,0.2-1.6,0.4-2.5,0.4c-0.7,0-1.4-0.1-2.2-0.3c-0.8-0.2-1.6-0.7-2.2-1.3
							c-0.7-0.7-1.3-1.6-1.8-2.8c-0.5-1.2-0.7-2.7-0.7-4.6V65.1h2v11.8c0,1.1,0.1,2.2,0.3,3.1c0.2,0.9,0.5,1.8,0.9,2.4
							c0.4,0.7,1,1.2,1.6,1.6c0.7,0.4,1.5,0.6,2.6,0.6c0.8,0,1.4-0.1,2.1-0.4c0.6-0.2,1.2-0.6,1.7-1c0.5-0.4,0.9-0.9,1.3-1.3
							c0.4-0.5,0.6-1,0.8-1.5c0.1-0.3,0.2-0.7,0.3-1.1c0.1-0.4,0.1-0.8,0.1-1.2V65.1h2V80.8z"/>
						<path d="M338.5,83.1c0.5,0.3,1.2,0.7,2,1c0.8,0.3,1.6,0.5,2.6,0.5c1.6,0,2.8-0.4,3.6-1.2c0.8-0.8,1.2-1.7,1.2-2.8
							c0-1.1-0.3-2-1-2.8c-0.7-0.7-1.8-1.4-3.2-2c-1.7-0.7-3-1.5-3.9-2.4c-0.9-0.9-1.3-2-1.3-3.3c0-0.8,0.1-1.5,0.4-2.1
							c0.3-0.7,0.7-1.3,1.3-1.8c0.5-0.5,1.2-0.9,2-1.2c0.8-0.3,1.7-0.5,2.6-0.5c0.9,0,1.8,0.1,2.6,0.4c0.8,0.3,1.4,0.6,2,0.9
							l-0.8,1.7c-0.3-0.3-0.8-0.5-1.5-0.8c-0.7-0.3-1.5-0.4-2.5-0.4c-1.3,0-2.3,0.4-3,1.1c-0.7,0.7-1,1.6-1,2.5c0,1.1,0.3,1.9,1,2.5
							c0.7,0.6,1.7,1.2,3.2,1.8c1.6,0.7,2.9,1.5,3.9,2.4c0.9,0.9,1.4,2.2,1.4,3.8c0,1.8-0.6,3.3-1.9,4.3c-1.3,1.1-3,1.6-5,1.6
							c-1,0-2-0.1-2.9-0.4c-0.9-0.3-1.7-0.6-2.3-1L338.5,83.1z"/>
					</g>
				</g>
			</g>
		</g>
	</g>
	<g>
		<g>
			<g>
				<path d="M92.2,60.7c1.1-1.3,1.8-3.1,1.6-4.9c-1.5,0.1-3.4,1-4.5,2.3c-1,1.1-1.8,3-1.6,4.7C89.4,63,91.1,62,92.2,60.7 M96,72
					c0,4.6,4.1,6.2,4.1,6.2c0,0.1-0.6,2.2-2.1,4.3c-1.3,1.9-2.6,3.7-4.7,3.7c-2,0-2.7-1.2-5-1.2c-2.3,0-3.1,1.2-5,1.3
					c-2,0.1-3.5-2-4.8-3.9c-2.6-3.8-4.6-10.7-1.9-15.4c1.3-2.3,3.7-3.8,6.3-3.8c2,0,3.8,1.3,5,1.3c1.2,0,3.5-1.6,5.8-1.4
					c1,0,3.8,0.4,5.6,3C99.2,66.3,96,68.2,96,72"/>
			</g>
		</g>
	</g>
</g>
</svg>
