<?xml version="1.0" encoding="utf-8"?>
<!-- Generator: Adobe Illustrator 19.1.0, SVG Export Plug-In . SVG Version: 6.00 Build 0)  -->
<svg version="1.1" id="Layer_1" xmlns="http://www.w3.org/2000/svg" xmlns:xlink="http://www.w3.org/1999/xlink" x="0px" y="0px"
	 viewBox="0 0 228 66" style="enable-background:new 0 0 228 66;" xml:space="preserve">
<g>
	<g>
		<g>
			<g>
				<path d="M44.4,20.2c-0.5,0-0.9,0.2-1.2,0.5c-0.3,0.3-0.5,0.8-0.5,1.3c0,0.5,0.2,0.9,0.5,1.2c0.3,0.3,0.7,0.5,1.2,0.5
					c0.5,0,0.9-0.2,1.3-0.5c0.3-0.3,0.5-0.7,0.5-1.2c0-0.5-0.2-0.9-0.5-1.3C45.3,20.4,44.8,20.2,44.4,20.2"/>
				<rect x="43.3" y="28.3" width="2" height="20.8"/>
				<path d="M63.9,22.1c-0.8-0.8-1.8-1.4-3.1-1.8c-1.3-0.4-2.8-0.6-4.5-0.6c-1.2,0-2.3,0.1-3.3,0.2c-1,0.1-1.9,0.2-2.8,0.4v28.9h2
					V36.6c1,0.2,2.1,0.3,3.4,0.3c1.5,0,2.9-0.2,4.2-0.6c1.3-0.4,2.4-0.9,3.3-1.7c0.9-0.8,1.7-1.7,2.2-2.8c0.5-1.1,0.8-2.4,0.8-3.9
					c0-1.2-0.2-2.3-0.6-3.3C65.1,23.6,64.6,22.8,63.9,22.1 M61.9,33.4c-1.4,1.2-3.5,1.8-6,1.8c-0.7,0-1.3,0-2-0.1
					c-0.6-0.1-1.2-0.2-1.7-0.3v-13c0.4-0.1,0.9-0.2,1.6-0.2c0.7-0.1,1.5-0.1,2.4-0.1c1.2,0,2.2,0.1,3.2,0.4c1,0.3,1.8,0.7,2.5,1.2
					c0.7,0.5,1.2,1.2,1.6,2.1c0.4,0.8,0.6,1.8,0.6,2.9C64,30.4,63.3,32.2,61.9,33.4"/>
				<path d="M82.1,29.4c-0.8-0.6-1.5-1-2.3-1.2c-0.8-0.2-1.4-0.3-1.9-0.3c-1.6,0-3,0.4-4.2,1.1c-1.2,0.7-2.1,1.7-2.7,3h-0.1V18.4h-2
					v30.7h2V36.3c0-0.8,0.1-1.5,0.3-2c0.4-1.3,1.2-2.4,2.3-3.3c1.1-0.9,2.4-1.4,3.8-1.4c1,0,1.9,0.2,2.6,0.6
					c0.7,0.4,1.3,0.9,1.7,1.6c0.4,0.7,0.7,1.4,0.9,2.3c0.2,0.9,0.3,1.7,0.3,2.7v12.4h2V36.4c0-1.9-0.3-3.4-0.8-4.5
					C83.5,30.8,82.9,30,82.1,29.4"/>
				<path d="M104.4,30.8c-0.8-0.9-1.8-1.7-3-2.2c-1.2-0.5-2.4-0.8-3.8-0.8c-1.3,0-2.5,0.2-3.6,0.7c-1.1,0.5-2.2,1.2-3,2.1
					c-0.9,0.9-1.6,2.1-2.1,3.5c-0.5,1.4-0.8,3-0.8,4.7c0,1.6,0.2,3.1,0.7,4.4c0.5,1.3,1.1,2.4,2,3.4c0.8,0.9,1.8,1.7,3,2.1
					c1.1,0.5,2.4,0.7,3.7,0.7c1.1,0,2.3-0.2,3.4-0.6c1.1-0.4,2.2-1.1,3.1-2c0.9-0.9,1.7-2,2.3-3.4c0.6-1.4,0.9-3.1,0.9-5
					c0-1.6-0.2-3.1-0.7-4.4C105.9,32.8,105.2,31.7,104.4,30.8 M104.4,42.4c-0.4,1.1-0.9,2.1-1.6,2.9c-0.7,0.8-1.5,1.4-2.4,1.9
					c-0.9,0.5-1.9,0.7-3,0.7c-1.1,0-2.1-0.2-3-0.7c-0.9-0.5-1.7-1.1-2.3-1.9c-0.7-0.8-1.2-1.8-1.5-2.9c-0.4-1.1-0.5-2.3-0.5-3.6
					c0-1.1,0.1-2.2,0.4-3.3c0.3-1.1,0.7-2.1,1.4-2.9c0.6-0.9,1.4-1.6,2.3-2.1c0.9-0.6,2.1-0.8,3.4-0.8c1.3,0,2.5,0.3,3.4,0.9
					c0.9,0.6,1.7,1.3,2.3,2.2c0.6,0.9,1,1.9,1.3,2.9c0.3,1.1,0.4,2.1,0.4,3C105,40,104.8,41.2,104.4,42.4"/>
				<path d="M123.6,29.4c-0.8-0.6-1.5-1-2.3-1.2c-0.8-0.2-1.4-0.3-1.9-0.3c-1.7,0-3.1,0.4-4.3,1.2c-1.2,0.8-2.1,1.8-2.6,2.9h-0.2
					v-3.7h-2c0.1,0.8,0.1,1.6,0.1,2.4c0,0.8,0,1.6,0,2.6v15.8h2V36.2c0-0.7,0.1-1.3,0.3-1.8c0.4-1.4,1.2-2.5,2.3-3.4
					c1.1-0.9,2.4-1.3,3.8-1.3c1,0,1.9,0.2,2.6,0.6c0.7,0.4,1.3,0.9,1.7,1.6c0.4,0.7,0.7,1.4,0.9,2.3c0.2,0.9,0.3,1.8,0.3,2.7v12.4h2
					V36.5c0-1.9-0.3-3.4-0.8-4.6C125,30.8,124.3,30,123.6,29.4"/>
				<path d="M145.1,31.4c-0.6-1-1.4-1.8-2.4-2.5c-1-0.7-2.4-1-4.1-1c-1.3,0-2.5,0.3-3.6,0.8c-1.1,0.5-2.1,1.3-2.9,2.2
					c-0.8,1-1.4,2.2-1.9,3.5c-0.5,1.4-0.7,2.9-0.7,4.6c0,1.5,0.2,2.9,0.7,4.2c0.4,1.3,1.1,2.4,1.9,3.3c0.8,0.9,1.8,1.6,3,2.2
					c1.2,0.5,2.5,0.8,4,0.8c1.7,0,3.1-0.2,4.2-0.5c1.1-0.3,1.8-0.6,2.2-0.8l-0.5-1.6c-0.6,0.3-1.3,0.5-2.2,0.8
					c-0.9,0.3-2,0.4-3.4,0.4c-1,0-2-0.2-3-0.5c-0.9-0.3-1.8-0.9-2.5-1.6c-0.7-0.8-1.3-1.7-1.7-2.9c-0.4-1.2-0.6-2.6-0.6-4.3h15
					c0-0.2,0-0.4,0-0.6v-0.7c0-0.8-0.1-1.7-0.3-2.8C146.1,33.4,145.7,32.4,145.1,31.4 M131.7,36.9c0.1-0.8,0.3-1.6,0.6-2.5
					c0.3-0.9,0.7-1.6,1.3-2.4c0.5-0.7,1.2-1.3,2-1.8c0.8-0.5,1.8-0.7,2.8-0.7c1.2,0,2.2,0.2,3,0.7c0.8,0.5,1.4,1.1,1.9,1.8
					c0.5,0.7,0.8,1.5,1,2.4c0.2,0.9,0.3,1.7,0.3,2.4H131.7z"/>
			</g>
			<g>
				<path d="M172,21.6c-2,0-3.7,0.3-5.3,1c-1.6,0.7-2.9,1.6-4.1,2.8c-1.1,1.2-2,2.5-2.7,4.1c-0.7,1.5-1.1,3.2-1.2,4.8h0.1
					c0.7-1.1,1.7-2,2.9-2.8c1.2-0.8,2.7-1.2,4.5-1.2c1.3,0,2.5,0.2,3.5,0.7c1,0.5,1.9,1.1,2.7,1.9c0.7,0.8,1.3,1.8,1.7,2.9
					c0.4,1.1,0.6,2.4,0.6,3.7c0,1.3-0.2,2.5-0.6,3.8c-0.4,1.2-1,2.3-1.7,3.2c-0.7,0.9-1.7,1.7-2.8,2.2c-1.1,0.6-2.4,0.8-3.8,0.8
					c-1.3,0-2.5-0.3-3.6-0.8c-1.1-0.5-2.1-1.3-2.9-2.3c-0.9-1-1.5-2.3-2-3.8c-0.5-1.5-0.7-3.2-0.7-5.2c0-2.4,0.3-4.7,1-6.8
					c0.7-2.1,1.6-4,2.9-5.6c1.3-1.6,2.9-2.9,4.9-3.8c1.9-1,4.2-1.5,6.7-1.6V21.6z M165.9,47.8c1,0,1.8-0.2,2.6-0.6
					c0.8-0.4,1.5-0.9,2.1-1.6c0.6-0.7,1-1.5,1.4-2.5c0.3-1,0.5-2.1,0.5-3.4c0-1.3-0.2-2.4-0.5-3.3c-0.3-1-0.8-1.7-1.4-2.4
					c-0.6-0.6-1.3-1.1-2.2-1.4c-0.8-0.3-1.7-0.5-2.7-0.5c-1.3,0-2.6,0.4-3.8,1.1c-1.2,0.8-2.1,1.8-2.8,3c-0.1,0.2-0.2,0.5-0.3,0.8
					c-0.1,0.3-0.1,0.6-0.1,0.9c0,1.5,0.2,2.8,0.5,4.1c0.3,1.2,0.8,2.3,1.4,3.1c0.6,0.9,1.4,1.5,2.3,2
					C163.6,47.6,164.7,47.8,165.9,47.8L165.9,47.8z"/>
			</g>
		</g>
		<g>
			<g>
				<path d="M204.9,50.9h-8.7c-2.4,0-3.9,0-5.5-0.4c-1.5-0.4-2.7-1.2-3.8-2.2c-1.1-1.1-1.8-2.3-2.2-3.8c-0.4-1.5-0.4-3-0.4-5.5v-8.7
					c0-2.4,0-3.9,0.4-5.5c0.4-1.5,1.2-2.8,2.2-3.8c1.1-1.1,2.3-1.8,3.8-2.2c1.5-0.4,3-0.4,5.5-0.4h8.7c2.4,0,3.9,0,5.4,0.4
					c1.5,0.4,2.7,1.1,3.8,2.2c1.1,1.1,1.8,2.3,2.2,3.8c0.4,1.5,0.4,3,0.4,5.5V39c0,2.5,0,3.9-0.4,5.5c-0.4,1.5-1.1,2.8-2.2,3.8
					c-1.1,1.1-2.3,1.8-3.8,2.2C208.7,50.8,207.3,50.9,204.9,50.9 M196.1,19.8c-2.3,0-3.7,0-5.1,0.4c-1.2,0.3-2.3,1-3.2,1.8
					c-0.9,0.9-1.5,1.9-1.8,3.2c-0.4,1.4-0.4,2.7-0.4,5.1V39c0,2.3,0,3.7,0.4,5.1c0.3,1.2,1,2.3,1.8,3.2c0.9,0.9,1.9,1.5,3.2,1.8
					c1.4,0.4,2.8,0.4,5.1,0.4h8.7c2.3,0,3.7,0,5-0.4c1.2-0.3,2.3-0.9,3.2-1.8c0.9-0.9,1.5-1.9,1.8-3.2c0.4-1.4,0.4-2.7,0.4-5.1v-8.7
					c0-2.3,0-3.7-0.4-5.1c-0.3-1.2-1-2.3-1.8-3.2c-0.9-0.9-1.9-1.5-3.2-1.8c-1.4-0.4-2.8-0.4-5-0.4H196.1z"/>
				<path d="M195.7,41.3c0.5,0.3,1.1,0.6,1.8,0.9c0.7,0.3,1.5,0.4,2.3,0.4c1.5,0,2.6-0.3,3.3-1c0.7-0.7,1.1-1.5,1.1-2.5
					c0-1-0.3-1.8-0.9-2.4c-0.6-0.6-1.6-1.2-2.9-1.7c-1.5-0.6-2.7-1.3-3.5-2.1c-0.8-0.8-1.2-1.8-1.2-2.9c0-0.7,0.1-1.3,0.4-1.9
					c0.3-0.6,0.6-1.1,1.1-1.6c0.5-0.5,1.1-0.8,1.8-1.1c0.7-0.3,1.5-0.4,2.4-0.4c0.8,0,1.6,0.1,2.3,0.3c0.7,0.2,1.3,0.5,1.8,0.8
					l-0.8,1.5c-0.3-0.2-0.8-0.5-1.4-0.7c-0.6-0.3-1.3-0.4-2.3-0.4c-1.2,0-2.1,0.3-2.7,1c-0.6,0.6-0.9,1.4-0.9,2.2
					c0,0.9,0.3,1.7,0.9,2.2c0.6,0.5,1.6,1,2.9,1.5c1.5,0.6,2.7,1.3,3.5,2.1c0.8,0.8,1.2,1.9,1.2,3.3c0,1.6-0.5,2.9-1.7,3.8
					c-1.2,0.9-2.7,1.4-4.6,1.4c-0.9,0-1.8-0.1-2.6-0.3c-0.8-0.2-1.5-0.5-2.1-0.9L195.7,41.3z"/>
			</g>
		</g>
	</g>
	<g>
		<g>
			<g>
				<path d="M26.2,24c1.1-1.3,1.8-3.1,1.6-4.9c-1.5,0.1-3.4,1-4.5,2.3c-1,1.1-1.9,3-1.6,4.7C23.4,26.3,25.1,25.2,26.2,24 M30,35.3
					c0,4.6,4.1,6.1,4.1,6.2c0,0.1-0.6,2.2-2.1,4.3c-1.3,1.9-2.6,3.7-4.7,3.7c-2,0-2.7-1.2-5-1.2c-2.3,0-3.1,1.2-5,1.3
					c-2,0.1-3.5-2-4.8-3.9C9.9,42,7.9,35,10.5,30.4c1.3-2.3,3.7-3.8,6.3-3.8c2,0,3.8,1.3,5,1.3c1.2,0,3.5-1.6,5.8-1.4
					c1,0,3.8,0.4,5.6,3C33.2,29.6,30,31.4,30,35.3"/>
			</g>
		</g>
	</g>
</g>
</svg>
