<?xml version="1.0" encoding="utf-8"?>
<!-- Generator: Adobe Illustrator 19.1.0, SVG Export Plug-In . SVG Version: 6.00 Build 0)  -->
<svg version="1.1" id="Layer_1" xmlns="http://www.w3.org/2000/svg" xmlns:xlink="http://www.w3.org/1999/xlink" x="0px" y="0px"
	 viewBox="-191 364 287 66" style="enable-background:new -191 364 287 66;" xml:space="preserve">
<style type="text/css">
	.st0{fill:#231F20;}
</style>
<g>
	<path class="st0" d="M-148.7,543.3c1.1-1.3,1.8-3.1,1.6-4.9c-1.5,0.1-3.4,1-4.5,2.3c-1,1.1-1.8,3-1.6,4.7
		C-151.5,545.6-149.8,544.6-148.7,543.3 M-144.9,554.6c0,4.6,4.1,6.2,4.1,6.2c0,0.1-0.6,2.2-2.1,4.3c-1.3,1.9-2.6,3.7-4.7,3.8
		c-2,0-2.7-1.2-5-1.2c-2.3,0-3.1,1.2-5,1.3c-2,0.1-3.5-2-4.8-3.9c-2.6-3.8-4.6-10.7-1.9-15.4c1.3-2.3,3.7-3.8,6.3-3.8
		c2,0,3.8,1.3,5,1.3c1.2,0,3.5-1.6,5.8-1.4c1,0,3.8,0.4,5.6,3C-141.7,548.9-144.9,550.8-144.9,554.6"/>
	<g>
		<path class="st0" d="M-132.2,541.3c0-0.5,0.2-0.9,0.5-1.3c0.3-0.3,0.7-0.5,1.2-0.5c0.5,0,0.9,0.2,1.3,0.5c0.3,0.3,0.5,0.8,0.5,1.3
			s-0.2,0.9-0.5,1.2c-0.3,0.3-0.8,0.5-1.3,0.5c-0.5,0-0.9-0.2-1.2-0.5C-132.1,542.2-132.2,541.8-132.2,541.3z M-131.5,568.5v-20.8h2
			v20.8H-131.5z"/>
		<path class="st0" d="M-124.6,539.6c0.8-0.1,1.8-0.3,2.8-0.4c1-0.1,2.1-0.2,3.3-0.2c1.7,0,3.2,0.2,4.5,0.6c1.3,0.4,2.3,1,3.1,1.8
			c0.7,0.7,1.2,1.5,1.6,2.5c0.4,1,0.6,2.1,0.6,3.3c0,1.5-0.3,2.8-0.8,3.9c-0.5,1.1-1.3,2.1-2.2,2.8c-0.9,0.8-2,1.3-3.3,1.7
			c-1.3,0.4-2.6,0.6-4.1,0.6c-1.3,0-2.4-0.1-3.4-0.3v12.5h-2V539.6z M-122.6,554.2c0.5,0.1,1,0.2,1.6,0.3c0.6,0.1,1.3,0.1,2,0.1
			c2.6,0,4.6-0.6,6-1.8c1.4-1.2,2.2-3,2.2-5.3c0-1.1-0.2-2.1-0.6-2.9c-0.4-0.8-0.9-1.5-1.6-2.1c-0.7-0.5-1.5-0.9-2.5-1.2
			c-1-0.3-2-0.4-3.2-0.4c-0.9,0-1.7,0-2.4,0.1c-0.7,0.1-1.2,0.2-1.6,0.2V554.2z"/>
		<path class="st0" d="M-106,537.7h2v13.6h0.1c0.7-1.3,1.6-2.3,2.7-3c1.2-0.7,2.5-1.1,4.2-1.1c0.5,0,1.1,0.1,1.9,0.3
			c0.8,0.2,1.6,0.6,2.3,1.2c0.8,0.6,1.4,1.5,2,2.6c0.5,1.1,0.8,2.6,0.8,4.5v12.7h-2V556c0-0.9-0.1-1.8-0.3-2.7
			c-0.2-0.9-0.5-1.6-0.9-2.3c-0.4-0.6-1-1.2-1.7-1.6c-0.7-0.4-1.6-0.6-2.6-0.6c-1.5,0-2.8,0.5-3.8,1.4c-1.1,0.9-1.8,2-2.3,3.3
			c-0.2,0.6-0.3,1.3-0.3,2v12.8h-2V537.7z"/>
		<path class="st0" d="M-77.2,547.2c1.4,0,2.7,0.3,3.8,0.8c1.2,0.5,2.1,1.2,3,2.2c0.8,0.9,1.5,2.1,1.9,3.4c0.5,1.3,0.7,2.8,0.7,4.4
			c0,1.9-0.3,3.6-0.9,5c-0.6,1.4-1.3,2.5-2.3,3.4c-0.9,0.9-2,1.6-3.1,2c-1.1,0.4-2.3,0.6-3.4,0.6c-1.3,0-2.5-0.2-3.7-0.7
			c-1.1-0.5-2.1-1.2-3-2.1c-0.8-0.9-1.5-2.1-2-3.4c-0.5-1.3-0.7-2.8-0.7-4.4c0-1.8,0.3-3.4,0.8-4.7c0.5-1.4,1.2-2.5,2.1-3.5
			c0.9-0.9,1.9-1.6,3.1-2.1C-79.7,547.4-78.5,547.2-77.2,547.2z M-77.2,548.9c-1.3,0-2.4,0.3-3.4,0.8c-0.9,0.5-1.7,1.3-2.3,2.1
			c-0.6,0.9-1.1,1.9-1.4,3c-0.3,1.1-0.4,2.2-0.4,3.3c0,1.3,0.2,2.5,0.5,3.6c0.4,1.1,0.9,2.1,1.5,2.9c0.7,0.8,1.4,1.4,2.3,1.9
			c0.9,0.5,1.9,0.7,3,0.7c1.1,0,2.1-0.2,3-0.7c0.9-0.5,1.7-1.1,2.4-1.9c0.7-0.8,1.2-1.8,1.6-2.9c0.4-1.1,0.6-2.4,0.6-3.7
			c0-1-0.1-2-0.4-3c-0.3-1.1-0.7-2-1.3-2.9c-0.6-0.9-1.3-1.6-2.3-2.2C-74.8,549.2-75.9,548.9-77.2,548.9z"/>
		<path class="st0" d="M-64.6,552.6c0-1,0-1.8,0-2.6c0-0.8-0.1-1.5-0.1-2.4h2v3.7h0.2c0.5-1.1,1.4-2.1,2.6-2.9
			c1.2-0.8,2.7-1.2,4.3-1.2c0.5,0,1.1,0.1,1.9,0.3c0.8,0.2,1.6,0.6,2.3,1.2c0.8,0.6,1.4,1.5,2,2.6c0.5,1.1,0.8,2.7,0.8,4.6v12.6h-2
			v-12.4c0-0.9-0.1-1.8-0.3-2.7c-0.2-0.9-0.5-1.6-0.9-2.3c-0.4-0.6-1-1.2-1.7-1.6c-0.7-0.4-1.6-0.6-2.6-0.6c-1.4,0-2.7,0.4-3.8,1.3
			c-1.1,0.9-1.9,2-2.3,3.4c-0.2,0.5-0.3,1.2-0.3,1.8v12.9h-2V552.6z"/>
		<path class="st0" d="M-43.4,557.8c0,1.7,0.2,3.2,0.6,4.3c0.4,1.2,1,2.1,1.7,2.9c0.7,0.8,1.5,1.3,2.5,1.6c0.9,0.3,1.9,0.5,3,0.5
			c1.4,0,2.5-0.1,3.4-0.4c0.9-0.3,1.6-0.5,2.2-0.8l0.5,1.6c-0.4,0.2-1.1,0.5-2.2,0.8c-1.1,0.3-2.4,0.5-4.2,0.5c-1.5,0-2.8-0.3-4-0.8
			c-1.2-0.5-2.2-1.2-3-2.2c-0.8-0.9-1.5-2-1.9-3.3c-0.4-1.3-0.7-2.7-0.7-4.2c0-1.7,0.2-3.3,0.7-4.7c0.5-1.4,1.1-2.5,1.9-3.5
			c0.8-1,1.8-1.7,2.9-2.2c1.1-0.5,2.3-0.8,3.6-0.8c1.7,0,3,0.3,4.1,1c1,0.7,1.8,1.5,2.4,2.5c0.6,1,1,2,1.2,3c0.2,1.1,0.3,2,0.3,2.8
			c0,0.3,0,0.5,0,0.7c0,0.2,0,0.4,0,0.6L-43.4,557.8z M-30.5,556.2c0-0.8-0.1-1.6-0.3-2.4c-0.2-0.9-0.5-1.6-1-2.4
			c-0.5-0.7-1.1-1.3-1.9-1.8c-0.8-0.5-1.8-0.7-3-0.7c-1.1,0-2,0.2-2.9,0.7c-0.8,0.5-1.5,1.1-2,1.8c-0.5,0.7-1,1.5-1.3,2.4
			c-0.3,0.9-0.5,1.7-0.6,2.5H-30.5z"/>
		<path class="st0" d="M-3,541c-2,0-3.7,0.3-5.3,1s-2.9,1.6-4.1,2.8c-1.1,1.2-2,2.5-2.7,4.1c-0.7,1.5-1.1,3.2-1.2,4.8h0.1
			c0.7-1.1,1.7-2,2.9-2.8c1.2-0.8,2.7-1.2,4.5-1.2c1.3,0,2.5,0.2,3.5,0.7c1,0.5,1.9,1.1,2.7,1.9c0.7,0.8,1.3,1.8,1.7,2.9
			c0.4,1.1,0.6,2.4,0.6,3.7c0,1.3-0.2,2.5-0.6,3.7c-0.4,1.2-1,2.3-1.7,3.2c-0.7,0.9-1.7,1.7-2.8,2.2c-1.1,0.6-2.4,0.8-3.8,0.8
			c-1.3,0-2.5-0.3-3.6-0.8c-1.1-0.5-2.1-1.3-2.9-2.3c-0.8-1-1.5-2.3-2-3.8c-0.5-1.5-0.7-3.2-0.7-5.2c0-2.4,0.3-4.7,1-6.8
			c0.7-2.1,1.6-4,2.9-5.6c1.3-1.6,2.9-2.9,4.9-3.8c1.9-1,4.2-1.5,6.7-1.6V541z M-9.1,567.2c1,0,1.8-0.2,2.6-0.6
			c0.8-0.4,1.5-0.9,2.1-1.6c0.6-0.7,1-1.5,1.4-2.5c0.3-1,0.5-2.1,0.5-3.4c0-1.3-0.2-2.4-0.5-3.3c-0.3-1-0.8-1.7-1.4-2.4
			c-0.6-0.6-1.3-1.1-2.2-1.5c-0.8-0.3-1.7-0.5-2.7-0.5c-1.3,0-2.6,0.4-3.8,1.1c-1.2,0.8-2.1,1.8-2.8,3c-0.1,0.2-0.2,0.5-0.3,0.8
			c-0.1,0.3-0.1,0.6-0.1,0.9c0,1.5,0.2,2.8,0.5,4.1c0.3,1.2,0.8,2.3,1.4,3.1c0.6,0.9,1.4,1.5,2.3,2
			C-11.4,566.9-10.3,567.2-9.1,567.2L-9.1,567.2z"/>
	</g>
</g>
<g>
	<path class="st0" d="M-146.4,387c1.1-1.3,1.8-3.1,1.6-4.9c-1.5,0.1-3.4,1-4.5,2.3c-1,1.1-1.8,3-1.6,4.7
		C-149.2,389.3-147.5,388.3-146.4,387 M-142.5,398.3c0,4.6,4.1,6.2,4.1,6.2c0,0.1-0.6,2.2-2.1,4.3c-1.3,1.9-2.6,3.7-4.7,3.8
		c-2,0-2.7-1.2-5-1.2c-2.3,0-3.1,1.2-5,1.3c-2,0.1-3.5-2-4.8-3.9c-2.6-3.8-4.6-10.7-1.9-15.4c1.3-2.3,3.7-3.8,6.3-3.8
		c2,0,3.8,1.3,5,1.3c1.2,0,3.5-1.6,5.8-1.4c1,0,3.8,0.4,5.6,3C-139.4,392.6-142.6,394.4-142.5,398.3"/>
	<g>
		<g>
			<path class="st0" d="M-129.9,385c0-0.5,0.2-0.9,0.5-1.3c0.3-0.3,0.7-0.5,1.2-0.5c0.5,0,0.9,0.2,1.3,0.5c0.3,0.3,0.5,0.8,0.5,1.3
				c0,0.5-0.2,0.9-0.5,1.2c-0.3,0.3-0.8,0.5-1.3,0.5c-0.5,0-0.9-0.2-1.2-0.5C-129.8,385.9-129.9,385.5-129.9,385z M-129.2,412.1
				v-20.8h2v20.8H-129.2z"/>
			<path class="st0" d="M-122.3,383.2c0.8-0.1,1.8-0.3,2.8-0.4c1-0.1,2.1-0.2,3.3-0.2c1.7,0,3.2,0.2,4.5,0.6c1.3,0.4,2.3,1,3.1,1.8
				c0.7,0.7,1.2,1.5,1.6,2.5c0.4,1,0.6,2.1,0.6,3.3c0,1.5-0.3,2.8-0.8,3.9c-0.5,1.1-1.3,2.1-2.2,2.8c-0.9,0.8-2,1.3-3.3,1.7
				c-1.3,0.4-2.7,0.6-4.1,0.6c-1.3,0-2.4-0.1-3.4-0.3v12.5h-2V383.2z M-120.3,397.8c0.5,0.1,1,0.2,1.6,0.3c0.6,0.1,1.3,0.1,2,0.1
				c2.6,0,4.6-0.6,6-1.8c1.4-1.2,2.2-3,2.2-5.3c0-1.1-0.2-2.1-0.6-2.9c-0.4-0.8-0.9-1.5-1.6-2.1c-0.7-0.5-1.5-0.9-2.5-1.2
				c-1-0.3-2-0.4-3.2-0.4c-0.9,0-1.7,0-2.4,0.1c-0.7,0.1-1.2,0.2-1.6,0.2V397.8z"/>
			<path class="st0" d="M-103.7,381.4h2V395h0.1c0.7-1.3,1.6-2.3,2.7-3c1.2-0.7,2.5-1.1,4.2-1.1c0.5,0,1.1,0.1,1.9,0.3
				c0.8,0.2,1.6,0.6,2.3,1.2c0.8,0.6,1.4,1.5,2,2.6c0.5,1.1,0.8,2.6,0.8,4.5v12.7h-2v-12.4c0-0.9-0.1-1.8-0.3-2.7
				c-0.2-0.9-0.5-1.6-0.9-2.3c-0.4-0.6-1-1.2-1.7-1.6c-0.7-0.4-1.6-0.6-2.6-0.6c-1.5,0-2.8,0.5-3.8,1.4c-1.1,0.9-1.8,2-2.3,3.3
				c-0.2,0.6-0.3,1.3-0.3,2v12.8h-2V381.4z"/>
			<path class="st0" d="M-74.9,390.8c1.4,0,2.7,0.3,3.8,0.8c1.2,0.5,2.1,1.2,3,2.2c0.8,0.9,1.5,2.1,1.9,3.4c0.5,1.3,0.7,2.8,0.7,4.4
				c0,1.9-0.3,3.6-0.9,5c-0.6,1.4-1.3,2.5-2.3,3.4c-0.9,0.9-2,1.6-3.1,2c-1.1,0.4-2.3,0.6-3.4,0.6c-1.3,0-2.5-0.2-3.7-0.7
				c-1.1-0.5-2.1-1.2-3-2.1c-0.8-0.9-1.5-2.1-2-3.4c-0.5-1.3-0.7-2.8-0.7-4.4c0-1.8,0.3-3.4,0.8-4.7c0.5-1.4,1.2-2.5,2.1-3.5
				c0.9-0.9,1.9-1.6,3.1-2.1C-77.4,391.1-76.2,390.8-74.9,390.8z M-74.9,392.6c-1.3,0-2.4,0.3-3.4,0.8c-0.9,0.5-1.7,1.3-2.3,2.1
				c-0.6,0.9-1.1,1.9-1.4,3c-0.3,1.1-0.4,2.2-0.4,3.3c0,1.3,0.2,2.5,0.5,3.6c0.4,1.1,0.9,2.1,1.5,2.9c0.7,0.8,1.4,1.4,2.3,1.9
				c0.9,0.5,1.9,0.7,3,0.7c1.1,0,2.1-0.2,3-0.7c0.9-0.5,1.7-1.1,2.4-1.9c0.7-0.8,1.2-1.8,1.6-2.9c0.4-1.1,0.6-2.4,0.6-3.7
				c0-1-0.1-2-0.4-3c-0.3-1.1-0.7-2-1.3-2.9c-0.6-0.9-1.3-1.6-2.3-2.2C-72.4,392.9-73.6,392.6-74.9,392.6z"/>
			<path class="st0" d="M-62.3,396.3c0-1,0-1.9,0-2.6c0-0.8-0.1-1.5-0.1-2.4h2v3.7h0.2c0.5-1.1,1.4-2.1,2.6-2.9
				c1.2-0.8,2.7-1.2,4.3-1.2c0.5,0,1.1,0.1,1.9,0.3c0.8,0.2,1.6,0.6,2.3,1.2c0.8,0.6,1.4,1.5,2,2.6c0.5,1.1,0.8,2.7,0.8,4.6v12.6h-2
				v-12.4c0-0.9-0.1-1.8-0.3-2.7c-0.2-0.9-0.5-1.6-0.9-2.3c-0.4-0.6-1-1.2-1.7-1.6c-0.7-0.4-1.6-0.6-2.6-0.6c-1.4,0-2.7,0.4-3.8,1.3
				c-1.1,0.9-1.9,2-2.3,3.4c-0.2,0.5-0.3,1.2-0.3,1.8v12.9h-2V396.3z"/>
			<path class="st0" d="M-41.1,401.5c0,1.7,0.2,3.2,0.6,4.3c0.4,1.2,1,2.1,1.7,2.9c0.7,0.8,1.5,1.3,2.5,1.6c0.9,0.3,1.9,0.5,3,0.5
				c1.4,0,2.5-0.1,3.4-0.4c0.9-0.3,1.6-0.5,2.2-0.8l0.5,1.6c-0.4,0.2-1.1,0.5-2.2,0.8c-1.1,0.3-2.4,0.5-4.2,0.5
				c-1.5,0-2.8-0.3-4-0.8c-1.2-0.5-2.2-1.2-3-2.2c-0.8-0.9-1.5-2-1.9-3.3c-0.4-1.3-0.7-2.7-0.7-4.2c0-1.7,0.2-3.3,0.7-4.7
				c0.5-1.4,1.1-2.5,1.9-3.5c0.8-1,1.8-1.7,2.9-2.2c1.1-0.5,2.3-0.8,3.6-0.8c1.7,0,3,0.3,4.1,1c1,0.7,1.8,1.5,2.4,2.5
				c0.6,1,1,2,1.2,3c0.2,1.1,0.3,2,0.3,2.8c0,0.3,0,0.5,0,0.7c0,0.2,0,0.4,0,0.6L-41.1,401.5z M-28.2,399.9c0-0.8-0.1-1.6-0.3-2.4
				c-0.2-0.9-0.5-1.6-1-2.4c-0.5-0.7-1.1-1.3-1.9-1.8c-0.8-0.5-1.8-0.7-3-0.7c-1.1,0-2,0.2-2.9,0.7c-0.8,0.5-1.5,1.1-2,1.8
				c-0.5,0.7-1,1.5-1.3,2.4c-0.3,0.9-0.5,1.7-0.6,2.5H-28.2z"/>
			<path class="st0" d="M-0.7,384.6c-2,0-3.7,0.3-5.3,1c-1.6,0.7-2.9,1.6-4.1,2.8c-1.1,1.2-2,2.5-2.7,4.1c-0.7,1.5-1.1,3.2-1.2,4.8
				h0.1c0.7-1.1,1.7-2,2.9-2.8c1.2-0.8,2.7-1.2,4.5-1.2c1.3,0,2.5,0.2,3.5,0.7c1,0.5,1.9,1.1,2.7,1.9c0.7,0.8,1.3,1.8,1.7,2.9
				c0.4,1.1,0.6,2.4,0.6,3.7c0,1.3-0.2,2.5-0.6,3.7c-0.4,1.2-1,2.3-1.7,3.2c-0.7,0.9-1.7,1.7-2.8,2.2c-1.1,0.6-2.4,0.8-3.8,0.8
				c-1.3,0-2.5-0.3-3.6-0.8c-1.1-0.5-2.1-1.3-2.9-2.3c-0.8-1-1.5-2.3-2-3.8c-0.5-1.5-0.7-3.2-0.7-5.2c0-2.4,0.3-4.7,1-6.8
				c0.7-2.1,1.6-4,2.9-5.6c1.3-1.6,2.9-2.9,4.9-3.8c1.9-1,4.2-1.5,6.7-1.6V384.6z M-6.8,410.8c1,0,1.8-0.2,2.6-0.6
				c0.8-0.4,1.5-0.9,2.1-1.6c0.6-0.7,1-1.5,1.4-2.5c0.3-1,0.5-2.1,0.5-3.4c0-1.3-0.2-2.4-0.5-3.3c-0.3-1-0.8-1.7-1.4-2.4
				c-0.6-0.6-1.3-1.1-2.2-1.5c-0.8-0.3-1.7-0.5-2.7-0.5c-1.3,0-2.6,0.4-3.8,1.1c-1.2,0.8-2.1,1.8-2.8,3c-0.1,0.2-0.2,0.5-0.3,0.8
				c-0.1,0.3-0.1,0.6-0.1,0.9c0,1.5,0.2,2.8,0.5,4.1c0.3,1.2,0.8,2.3,1.4,3.1c0.6,0.9,1.4,1.5,2.3,2C-9,410.6-8,410.8-6.8,410.8
				L-6.8,410.8z"/>
		</g>
		<path class="st0" d="M11.9,383.3c0.8-0.1,1.8-0.3,2.8-0.4c1-0.1,2.1-0.2,3.3-0.2c1.7,0,3.2,0.2,4.5,0.6c1.3,0.4,2.3,1,3.1,1.8
			c0.7,0.7,1.2,1.5,1.6,2.5c0.4,1,0.6,2,0.6,3.3c0,1.5-0.3,2.8-0.8,3.9c-0.5,1.1-1.3,2.1-2.2,2.8c-0.9,0.8-2,1.3-3.3,1.7
			c-1.3,0.4-2.6,0.6-4.1,0.6c-1.3,0-2.4-0.1-3.4-0.3v12.5h-2V383.3z M14,397.8c0.5,0.1,1,0.2,1.6,0.3c0.6,0.1,1.3,0.1,1.9,0.1
			c2.6,0,4.6-0.6,6-1.8c1.4-1.2,2.2-3,2.2-5.3c0-1.1-0.2-2.1-0.6-2.9c-0.4-0.8-0.9-1.5-1.6-2.1c-0.7-0.5-1.5-0.9-2.5-1.2
			c-1-0.3-2-0.4-3.2-0.4c-0.9,0-1.7,0-2.4,0.1c-0.7,0.1-1.2,0.1-1.6,0.2V397.8z"/>
		<path class="st0" d="M30.7,381.4h2v30.7h-2V381.4z"/>
		<path class="st0" d="M53.1,407.1c0,0.9,0,1.8,0,2.6c0,0.8,0.1,1.6,0.1,2.4h-1.9v-3.6h-0.2c-0.3,0.5-0.6,0.9-1,1.4
			c-0.4,0.5-0.9,0.9-1.5,1.3c-0.6,0.4-1.2,0.7-2,1c-0.8,0.2-1.6,0.4-2.5,0.4c-0.7,0-1.4-0.1-2.2-0.3c-0.8-0.2-1.6-0.7-2.2-1.3
			c-0.7-0.6-1.3-1.6-1.8-2.7c-0.5-1.2-0.7-2.7-0.7-4.6v-12.2h2v11.8c0,1.1,0.1,2.2,0.3,3.1c0.2,0.9,0.5,1.7,0.9,2.4
			c0.4,0.7,1,1.2,1.6,1.6c0.7,0.4,1.5,0.6,2.5,0.6c0.8,0,1.4-0.1,2.1-0.4c0.6-0.2,1.2-0.6,1.7-1c0.5-0.4,0.9-0.9,1.3-1.3
			c0.4-0.5,0.6-1,0.8-1.5c0.1-0.3,0.2-0.7,0.3-1.1c0.1-0.4,0.1-0.8,0.1-1.2v-13.1h2V407.1z"/>
		<path class="st0" d="M56.9,409.4c0.5,0.3,1.2,0.7,2,1c0.8,0.3,1.6,0.5,2.6,0.5c1.6,0,2.8-0.4,3.6-1.1c0.8-0.8,1.2-1.7,1.2-2.8
			c0-1.1-0.3-2-1-2.7c-0.7-0.7-1.8-1.4-3.2-2c-1.7-0.7-3-1.5-3.9-2.4c-0.9-0.9-1.3-2-1.3-3.3c0-0.7,0.1-1.5,0.4-2.1
			c0.3-0.7,0.7-1.3,1.3-1.8c0.5-0.5,1.2-0.9,2-1.2c0.8-0.3,1.7-0.5,2.6-0.5c0.9,0,1.8,0.1,2.6,0.4c0.8,0.3,1.4,0.6,1.9,0.9l-0.8,1.7
			c-0.3-0.3-0.8-0.5-1.5-0.8c-0.6-0.3-1.5-0.4-2.5-0.4c-1.3,0-2.3,0.4-3,1.1c-0.7,0.7-1,1.6-1,2.5c0,1.1,0.3,1.9,1,2.5
			c0.7,0.6,1.7,1.2,3.2,1.8c1.6,0.7,2.9,1.5,3.9,2.4c0.9,0.9,1.4,2.2,1.4,3.8c0,1.8-0.6,3.3-1.9,4.3c-1.3,1.1-2.9,1.6-5,1.6
			c-1,0-2-0.1-2.9-0.4c-0.9-0.3-1.7-0.6-2.3-1L56.9,409.4z"/>
	</g>
</g>
</svg>
