<?xml version="1.0" encoding="utf-8"?>
<!-- Generator: Adobe Illustrator 19.1.0, SVG Export Plug-In . SVG Version: 6.00 Build 0)  -->
<svg version="1.1" id="Lockup" xmlns="http://www.w3.org/2000/svg" xmlns:xlink="http://www.w3.org/1999/xlink" x="0px" y="0px"
	 viewBox="0 0 4062.5 1075" style="enable-background:new 0 0 4062.5 1075;" xml:space="preserve">
<g>
	<path d="M1521.3,711h-2l-106-425.2h-126l-106,425.2h-2l-98-425.2h-132l166,596.3h124l110-408.2h2l110,408.2h125l166-596.3h-132
		L1521.3,711z M3844.1,285.9v239.1h-243V285.9h-124v596.3h124V628h243v254.1h125V285.9H3844.1z M615.3,208.8c28-35,47-82,42-130.1
		c-41,2-91,27-120,62.1c-26,30-49,79-43,125C540.3,269.8,586.3,242.8,615.3,208.8 M2304.2,386.9h178v495.2h123V386.9h178v-101h-479
		V386.9z M1962.2,640l68-237.1h2l67,237.1H1962.2z M656.3,274.8c-67-4-124,38-156,38c-32,0-81-36-134-35c-69,1-133,40-168,102
		c-72,124.1-19,308.2,51,409.2c34,50,75,105.1,129,103.1c51-2,71-33,133-33c62,0,80,33,134,32c56-1,91-50,125-100.1
		c39-57,55-112,56-115c-1-1-108-42-109-165.1c-1-103,84-152.1,88-155.1C757.3,284.8,682.3,276.8,656.3,274.8 M1961.2,285.9
		l-192,596.3h124l43-150.1h189l42,150.1h132l-191-596.3H1961.2z M3110.2,278.8c-158,0-251,102-251,272.1v67
		c0,172.1,93,271.2,250,271.2c158,0,237-96.1,237-204.1v-11h-119c0,62.1-30,110.1-116,110.1c-85,0-127-53-127-166.1v-67
		c0-112,42-168.1,127-168.1c79,0,116,52.1,116,111.1h119v-6C3346.1,371.9,3257.2,278.8,3110.2,278.8"/>
</g>
</svg>
